/* XPM */
static char *_155336e207f40ffe299f50e8c0bde60uq76N4qOiNpPqGYN[] = {
/* columns rows colors chars-per-pixel */
"64 64 6 1 ",
"  c gray38",
". c #6E6D6D",
"X c #888788",
"o c gray65",
"O c gray71",
"+ c gray32",
/* pixels */
" ....  . ..XXX.   ..XXX.  . . ..XooXX...  .. .XoXoooooooOoXX.X. ",
"...   . .XooXoX..  ...  ..   .XooOoooXX...  .. XooooooXoOOoXXX .",
".  . ..XoooooooX.. +. +.  .+XXoOOOOoXXoXX..+ .. XoXooXoOOoXXX.X.",
"..  ..XooOOOooXXXX. ++ . ++XXoOOooOOOoooXX. + ...XXXoOOooXX.X.X ",
" . ..XoOOOOOOXoXXoX. +. ++XoOOooOooooOoXoX..++  . XoooXXXXXX.XX ",
".. .XoOOOooooooXooXX . ++XoOoOOoooooXoXX.XX. + . . .XooXX.X. .X ",
". +.oOOoooooooooXooX. + .oOOOooooooXoooX..XX. + .. X.XX...  .XX ",
".+.XOOOOooooXoooXXoX.++ XOOoooooooooooooX..X. ++  + X..X.  .XX..",
" +.ooOooooXXoooXXoX. + .oOooooXooooXXoXoX.X... +++  . XXXX.XX...",
". .oOooooXXooXXXXX. +  XOoooXXooooXXoooX.XX. .. +++  .. XXX..  .",
" . ooooXoooXXX.X.. .  .XoooXXoooXXoooXX.XX. ++ .   +    ..++  . ",
"   XooXXXXXXX.XXX..  ..XooXXXXXoo.XoXXXX.X ++ + ..  .. . ++ .  .",
" +  XXooXX.XXXX... ++ .XXoX.XXXXX..XX.X...++   .XXooXX. +  + ++ ",
"  + .XXX..XXX.... + ++ .XX.XXX.XXX.X.X..X   ..XooOoOooX.  . + ++",
".  . .XXX.  ..  ...  .+ X.. .XX..XX. .XX. ..XooOOoooOXoX.  ... +",
"  .+  ..  +. ++.  ...  ..X.. ...XX. .XX. .XoOOOoOOooooooX.+ . ..",
" ++  + ..+  ++  XXX... ++ X...XX.XXX... .XoOOooooooooooXX..+ .. ",
"++ .+     .+  XooOOoXX. ++. . ..XXX.  .XXoOOooOOooXXooXoXX.++  .",
" ..  ++  . .XooOOOOOooX. + + ..XX..  .XoOOOooOOooXXoooXXX.. +++ ",
"..  ..++..XooOOOOoooOXoX  + .XX... + XoOOXoOooooooooXooX.X + +  ",
"ooX.. + .XooOOooOOooooXoX.  + ... + XooXXooooooXoooXooX.X.. + .X",
"OOOoX. ..XoOOOOoooooooooXX.  +++ .  .XXXXXXoooooXoXXoXXX. . .XoO",
"oOOOoX. .XoOOooooooXoooooX... +  + .X.XoXXooXXoXooXX.XX... .XoOo",
"ooooOoX. XXoOOoooXoXXoXooXX. .  +++ .XXXoooXXXXoXXX.XX. .  Xoooo",
"ooooXoX. .XooOooooXXoXXXoXX..  + +   .XXXoooXoXXXX... .. +.XOooo",
"ooXooXX.. XXooOoXooooo..XXX...  +  ..  .XXXooooXXXX. . .+ XoOooo",
"XXoooX... .XXXoooXooX..X.X... .  .  ... ..XXXoooX.  ....  XooOoo",
"XoooXXX.   X..XXXoXooXXXXX..  .. ...XX..  ..XXXX.  .X..  +.oXoXX",
"XX.XXXX..   X..X.XXXXXX.X. ...  ..XooooXX.    .. .X..X .++ XoooX",
"oXX.XX. ... .XX.XXX.X...... .  .XoooOOOOooX. ...XX..X.X +  .Xooo",
"XooXX.   . . ..XXXXX.X.. ... . XooOOOOOoOOoXX.  .X.XXXX+ +  ..XX",
".XX..  .....  ...XXXX.  .. .  XoOOOOOooooOOoXX ...XXXX++  .  .. ",
". .. .  .XoooXX. ......   . +XXOOOoooooXoooOoXX  ..XX .++. ..  .",
" ......XooOOOooX.   . .. .++ XooOoOoooXoooXXooX.  .     ++  ..  ",
".  . .XoOOOooOooX. .   ++++ XoOoooooooooXX.XXo     . . + .+++ ..",
"  .. XoOOOoooooXoX  ..+ ++. XOoooooooXXXXooX.X.   +.. ..   ..  .",
"..  .ooOOOOooooooXX ..X..  ..ooXoooXX.XXooX.XX . +  ... ..  ..  ",
". . XoOOoOoooXooX.X.X..XX. +.XooXXXoXX.XXXXXX..  + .. ++ ..XX.. ",
"   .oOOOooooXoXXXX.X.XXX.X+  .XooX.X..XXX..X.   ++..+++ XXoOooX.",
"X ..oOOoooXooooXXX.XXXX..X.+   XXXX..XXX..X.  . +.  .XXXoOOOOooX",
"XX. XoOoXoXXoXXXX...X...X.. ++  ..XXXX....  .. + +.XXoooOOoooOXo",
"oX.  XoOoXoXXXXX..X..X. .. .. . ++ .XXX..  ..  .+ XoooOOoooooooo",
"oXX. XooooooXX...XX   +  ++ .... ++ ..    .. .  ..oooOOooXooXXoo",
"oXX ..XoooXXX....X ++.  ++ ..XXXX..  ..  .  . . .XooOoooXooXXooO",
"X.X.  .XXX..XXXX..  + .+ ..XXoooooXX.  .    +  ..XXooooooooooOOo",
"XX...   .XX..X.  ..  +  .XooOOOOOooooX... .  ++. XoXooooooOOoooX",
"X..  ..   ..  ++ +  . ..XoOOOOOOOOOOooX... +++.  .XoooXoOOOooXXX",
".X..     ..XX..++ +  . XoOOOOoooOOooOOoX. +++  .  .XoooXooXXXX.X",
"X.  .. ..XooooX.   .. .XOOOoOOoooOOoooOoX. . +. .. .XXXXXXXX.X..",
"X  . ..XoooOOOooX.  . XoOOoooooooXooooooo....  .. .X.XX.XX..X..X",
"... .XoooOOOOOOooX.   XooOoooooXXoooXXXooX. ..   + .X.XX...X..XX",
".  .XoOOOOooooOoooX  .XoooOoooooXXXX.XXXoX..  . + ... .XX.XXXXX.",
"   XoOOOoooooOXoXXX.  .XoooXoXXX..XXX..XXX.  .   ..  .   ..XX.. ",
". .XoooOOooooooXoXXX.  XXXooXXX..X.X..XXXX...   +   .... +  .   ",
" .XoOooooooooXX.X.XX . .XX.X..   .XXXXX.XX.  . +++ . .    ++ . .",
" .XOoOooooooooXX..X...  .XX.  . .XXXX..XX.      + + .  . ++.... ",
" .oOOooooXoooXXX.X..  ..  .XX  .XXXX..X.....++  .XXX .. + . .  +",
".XoOoooXXooXXXX. ..  .. ++ . . ...XXX...  .++ .XoOOooX  .  .  + ",
".XXooXooXXXXX.. .X  .. ++ +   .. ...  . . +  XooOOOOOooX.   +++ ",
" .oXooXoo.XXXX.XX  . .. .+  .. ..  ..  ...  XooOOOooOOOoXX. .+ .",
". X.XoXXX..X..XX .  + ..     ...  .   ..  ..XoOooooooOOOoXX    .",
". .X.XXX. .   . .  + .XX.. +  . ..++ +  .  ..oXoooooooOOOoXX..  ",
" .  ..  .   .  ... .XXXXX.. ++ . ++ +  .... .XooooooOOoooXXXX . ",
".  . ..   ....  . .XXX.X. .. ++ .. .  .  ..  .oXoooooooOoXoX.   "
};
