/* XPM */
static char *_c75da27c29d42dbc6d6459971edd8cfLPRfzXLYPyx2XiK2[] = {
/* columns rows colors chars-per-pixel */
"64 64 7 1 ",
"  c #C29D62",
". c #B8945F",
"X c #AF8F55",
"o c #9F844D",
"O c #967441",
"+ c #7E6237",
"@ c #67502C",
/* pixels */
"      .X..XXX.              ..    ....                    .XXXoO",
"......XXXXXX................................................XXoO",
"XX..............XXXX...XXX...XXX.........XXXXX....X.....XXX...oo",
"XXXXX....XX.......XXX....XXX......XXX.....XXX..XXX...XXXXX...XoO",
"....XXXXXX...XXXoOOoooXXXoooXXX.....XXXXooooXXX..XXooXooXoXXXXoO",
"XXX...XX...X..XXXXoooXooXXXXXX...XXXXXooooXXXooX...X..XooXXXoooo",
"oXXXXXooooXXXooXXXXXXXX...XXooXXXXXooXX.....XX.XXX...XoooooXXooo",
"XXooooooX.XXoX....XXXXooX...XoooXXXX......XXX.......XXXXoooooooo",
"oooXXXX..XX...XXXX....XoooXooXXXooooooooXXXXXXX..XXXXoooXX...XoO",
"XoooooXXXXooX...XXXX....XXXX..X..XXXooooooXX....XXooooXXXXX...oO",
"..XXXXoooXXXooXXX...XXooooooXXXX..XX........XXXooXXXXXX.....XXoO",
"XXX..XXXooooXXXX...XXXXXooooooooXXXXXX...XXooXXXXXXX.....XXooXOO",
"ooXXX...XXoooooXXXXXooXooooXXXXoooooXXoXXoooXXXXXoooXXXoooXXooOO",
"oooo...XXXXXXoooooooXXXXXXooXXooooXXXXXoooooooXXooXXXXXXXXooooOO",
"++OOOOO+OO++++O+OOOO++++++++++++++++++++++++++++++++++++++++++++",
"@+++++++++++++++++++++++@@@@@@@@@@+@@+++++@@++@@@@@@@@@@@@@@@@@@",
"..    ..X.                   .OO          .     ..XXXXoooooXooXX",
"X......XooX...................oO....................XXX...XXXXXX",
".....XXXX.XXXX....XXXXXXXX...XoO...XXXXX....XXXooX....XXXX......",
"...........XX...XXX..X.....X.XoOX...XXXXXXooooXX.....XXXXXX.....",
"XXXX....XXXXXXooooXX....XXXooOOoooXXXXXoooXX....XXoooooX...XXX..",
"X...XX......XXXXooooX.XXoooooooooXXXooXXXooXXX...XXXXoooooooX..X",
"..XXXXXXXX......XX.....XXXXXXooOoooooXXXooX..XX.....XX..XXXX....",
"XXooXXXX...XX........XXX..XXoooOXXooooXX..........XXXoooX.......",
"X..XooooooXXXXXX...XooXXXX...XoO...XXXX....XXooXoooooXXXooXXXooX",
"..XXXXXoooooooXXX...XXXXX.....OOXXXooXXXXX....XXXXooXooXXXXXXXoo",
"XoooXX.X...XX.....XXXXooXXXX..oOoXXX........XXXX..XX..XXXooooXXX",
"oooXXXXXXX..XX..XXooooXXXoo..XOOXXooXX.......XXXXooXX...XXoooooo",
"XXoooooXX.XXooXXXooooXXXXXooXoOOoooXXXXXXXXXXoooXXXXXXooooXXXooo",
"oXXXXoooooXXXoooXXXXoooXooooooOOooooooXXooXooooXXXooooooXXXXooXX",
"+++++++++++++++OOOOOOO+++++++++++++++++++++++++OO+OOOOOOOOOO++++",
"@@@@@@@@++@@++++++++++++@@++@@@@@@@@@@@@@@+@@++++++++++++++++@@@",
".         .   ..XXXXXX..                      .         .....XoO",
"XX................XXXXXXX....................XXX............XXoo",
"oXXooXX.....XX..XX............XXX...XXX..XX...X...XX....XXXX..oo",
"XoooXX....XXXXXX.......XXXX.....XX...XXXXXoooXXXXXX...XooooXXXoO",
"XXX...XXXXooOOOooXXXX...XooX......XXXX.....XooXX...XXXXXXoooooOO",
".....XXXooXXXoOOoooooXXXXX..........XXX.....X..XX...XXXoooooXXOO",
"XXXX.....XXXXXXX..XXXooooXXXXXX..XXX.....XXXXXX...XoooXXXX....OO",
"XX..XX......X....XXXooooooooXXooX..XXX....XXooXXXooXoooX......oO",
"ooXXXXXX..XXXXXoooooooXXXXX...XX..XXXXooXX..XoooooXXXXooooX...oo",
"XoooXX.XX..XoooooX...XXX....XooXXXXooooXXXX...XXXXXXooooXXXX..oO",
"X..Xooo.....XXXXX..XXX..XXoooXXXoooXXXXXX....XXooX..XXXX......oO",
"..XXXoooXXX..X..XXoooXXooXXooooXXoooXX..........XooXX...XXX...oO",
"XXooooX..XXooXXXooooXXXXoooXXXooooX...XXXoXXXooXXXooXX...XXooXOO",
"oooXXXXX..XXooXXXXXoooooooooXXXXXXXXXoooXXooooooooXXXXooXXXXooOO",
"++++++O+OOOOOOOOOOOOOO+OO+++++++++++++OOOOOOOO+OO+++++++++++++++",
"++++@@++++++++++++++++++++@@@@@@@@@@++++++++++++++@@++@@@@@@@@@@",
"    .XXXXX..         .  ....XXoO           X    ..XXXX..        ",
"......ooXXXXX.....XX......XXXXoo........XXooX..XXXXX............",
".XXXXXXoooX.XX..XXX....XXX....ooXXX.......XXXXXXoooXX.....XXXX..",
"..ooooXXXXXX.....XXXXXXXX....XoOX..XXXXX......XooXXX....XoXX....",
"ooXX..........XXXXoooooXXXXXoooOooXoooX......XXXX...XXXooX.XX..o",
"oooXX.......XXX..XXXXoooooXXXooOXXXXooooXX.....XXX....XXXXX...XX",
"XXX......XXX.........XXXooooooooXX...XX....XXXXX..XXXXXoOoooXXoo",
".....XXX..XXXX......XXoooooXoooo..X......XXXooXXXXXXooOOooXXXXXX",
"XX....XXXoooooooXXXX....XXXX..oOXXXXXXX......XoooooooooXXX......",
"X..XXXooooooX.....XXXX......XXoOXXooXX......XXXXoooXXXXX......XX",
"oXXXX..XXX...XXX....XoooXXX..XoOoooXX...XX....X...XXX..XXooooooo",
"ooooooXX.......XXooXoooXXXXXXXoOXoooooXXX.......XXXXXXoooooXXXXo",
"XXXXoooooooXXX...XXXXXXooXXXoooOXXXooooXooXXooooooooXXXXooooXXXX",
"XXXoooooooooooXXXX...XooXXooooOOXXoooXXXXXXXXXXooooooooXXXXXXXoo",
"++++++++++++++++++++++O+OO++OOOOOOOO++++++++++++++++++++++++++++",
"@@@@@@@@@@@@@@@@@@@@+++++++++++++++++@++@@@@@@@@@@@@@@@@@@@@@@@@"
};
